<svg aria-hidden="true" style="position: absolute; width: 0; height: 0; overflow: hidden;" version="1.1" xmlns="http://www.w3.org/2000/svg" xmlns:xlink="http://www.w3.org/1999/xlink">
<defs>
<symbol id="icon-luxury" viewBox="0 0 106 32">
<path d="M39.512 5.159c-6.886 3.657-7.529 3.918-14.158 4.637-8.302 0.849-15.831 2.351-18.598 3.657l-1.931 0.914 2.381-0.327c1.287-0.196 2.51-0.065 2.703 0.261 0.644 0.98-2.832 3.331-4.826 3.331-2.059 0-2.188-0.196-1.223-2.025 0.386-0.653 0.515-1.241 0.322-1.241-0.837 0-2.124 4.441-2.317 7.837l-0.257 3.592 7.401 0.653v-2.286c0-4.963 4.312-9.796 8.816-9.796 5.341 0 9.202 3.984 9.202 9.404v3.004h47.492l0.257-3.592c0.322-3.853 1.802-6.139 5.148-7.902 5.406-2.808 12.742 1.829 12.742 8.163 0 2.090 0.064 2.155 2.124 1.763 1.094-0.196 3.282-0.522 4.762-0.784 3.218-0.522 3.733-1.045 4.247-4.31 0.257-1.829 0.064-2.808-0.901-4.049-0.644-0.849-1.223-2.155-1.223-2.873 0-0.784-0.257-2.090-0.579-2.939-0.579-1.567-0.965-1.633-6.95-2.024-3.475-0.196-8.816-0.327-11.841-0.327h-5.534l-0.45-2.024c-0.515-2.612-1.931-2.286-2.188 0.522-0.193 1.959-0.322 2.090-2.96 2.090-1.544 0-4.505 0.196-6.628 0.392l-3.861 0.457-0.45-2.416c-0.515-2.873-1.866-2.873-2.188 0-0.129 1.045-0.579 2.090-0.965 2.351-0.45 0.261-4.054 0.522-8.044 0.522h-7.207l0.386-1.829c0.644-2.612 0.708-2.743 5.020-4.767 3.797-1.829 3.861-1.894 1.673-1.894-1.48 0-4.698 1.306-9.395 3.853zM100.261 10.579c1.158 1.175 0.965 3.135-0.322 3.135-1.223 0-5.341-2.678-5.341-3.461s4.826-0.522 5.663 0.327z"></path>
<path d="M15.122 16.914c-2.574 1.11-3.861 3.331-3.861 6.727 0 2.808 0.257 3.461 2.124 5.159 3.411 3.069 9.202 2.155 11.004-1.829 1.416-3.069 0.901-6.008-1.48-8.425-2.252-2.286-4.826-2.808-7.787-1.633z"></path>
<path d="M78.832 18.482c-1.737 1.763-2.252 2.808-2.252 4.702 0 6.661 6.95 9.992 11.712 5.616 1.866-1.698 2.124-2.286 2.124-5.225 0-4.31-1.995-6.596-6.371-7.053-2.703-0.326-3.089-0.196-5.213 1.959z"></path>
</symbol>
<symbol id="icon-off-road" viewBox="0 0 77 32">
<path d="M27.787 4.99l-3.509 4.068-8.284 0.325c-4.487 0.163-9.262 0.597-10.528 1.030l-2.301 0.705-0.173 3.417c-0.115 2.549-0.345 3.363-1.036 3.363-1.553 0-0.633 2.332 1.266 3.363l1.783 0.976 1.266-3.2c1.783-4.556 3.164-5.478 8.572-5.478 4.2 0 4.315 0.054 6.443 2.061 1.841 1.736 2.244 2.549 2.589 5.153l0.403 3.091h11.966c12.944 0 12.657 0.054 12.657-3.037 0-2.278 1.553-5.044 3.567-6.183 1.438-0.813 2.877-1.085 6.041-1.085 3.739 0 4.2 0.108 5.293 1.41 0.633 0.759 1.553 2.658 2.129 4.176 0.518 1.573 1.035 2.875 1.093 2.983 0.115 0.108 0.805 0 1.668-0.217 1.093-0.217 1.496-0.705 1.496-1.627 0-0.705-0.23-1.302-0.575-1.302-0.288 0-0.575-0.759-0.575-1.627 0-1.247-0.23-1.627-1.151-1.627-0.978 0-1.151-0.38-1.151-2.169 0-2.766 0.115-2.983 1.323-2.929 0.575 0 0.978-0.38 0.978-0.976 0-0.705-0.46-0.976-1.611-0.976-1.381 0-1.726-0.38-2.704-2.875-0.806-1.898-1.668-3.037-2.704-3.525-0.978-0.434-6.271-0.759-16.051-0.976l-14.613-0.325-3.567 4.014zM45.449 5.044c0 3.525-2.301 9.329-4.372 11.064-1.266 1.085-2.071 1.247-6.271 1.247-6.041 0-6.616-0.434-6.616-4.936 0-2.82 0.288-3.634 2.359-6.725l2.359-3.525h12.542v2.875zM60.119 2.603c2.014 0.325 2.474 0.705 3.567 2.82 0.69 1.356 1.266 2.603 1.323 2.82 0 0.271-3.567 0.434-7.997 0.434h-7.939l-0.403-1.681c-0.173-0.922-0.345-2.386-0.345-3.254v-1.573l4.775 0.054c2.589 0 5.753 0.163 7.019 0.38zM4.832 12.909c-0.058 0.38-0.115 1.139-0.115 1.736-0.173 1.898-1.266 1.139-1.266-0.868 0-1.302 0.23-1.844 0.748-1.736 0.345 0.163 0.69 0.542 0.633 0.868z"></path>
<path d="M70.877 12.312l0.173 6.4h4.602v-12.475l-4.948-0.325 0.172 6.4z"></path>
<path d="M10.873 18.712c-0.863 0.434-1.956 1.681-2.531 2.766-1.266 2.495-0.748 5.098 1.438 7.43 1.496 1.573 1.956 1.736 4.89 1.736s3.394-0.163 4.89-1.736c4.43-4.61 1.496-11.064-5.005-11.010-1.208 0.054-2.876 0.38-3.682 0.814z"></path>
<path d="M53.906 18.875c-2.244 1.302-3.624 4.881-2.761 7.322 0.978 2.712 2.992 4.285 5.926 4.556 2.992 0.271 4.89-0.597 6.616-3.037 3.222-4.502-0.058-9.817-5.983-9.817-1.208 0-2.877 0.434-3.797 0.976z"></path>
</symbol>
<symbol id="icon-sport" viewBox="0 0 102 32">
<path d="M50.216 3.2c-2.632 0.945-6.996 2.764-9.558 4-4.017 1.891-5.61 2.255-10.043 2.255-6.719 0-14.13 1.236-15.030 2.473-0.97 1.309-7.342 4.8-8.797 4.8-0.693 0-1.247-0.364-1.247-0.873 0-0.436-0.554-0.291-1.316 0.436-1.177 1.164-1.247 1.455-0.346 3.2 1.247 2.618 1.247 3.2-0.416 5.091l-1.455 1.6h7.481l0.346-3.2c1.178-10.545 13.506-13.309 18.009-4 0.693 1.382 1.247 3.564 1.247 4.8v2.4h44.121l0.346-3.273c1.385-12.509 17.108-12.873 18.978-0.436 0.416 2.909 0.623 3.055 2.286 2.618 2.216-0.509 4.987-3.636 4.502-5.018-0.208-0.582-0.069-2.182 0.277-3.636 0.623-2.109 0.485-2.691-0.554-3.491-1.662-1.236-2.493-4.218-1.247-4.291 0.485 0-2.494-0.8-6.719-1.745-4.156-1.018-10.597-2.473-14.199-3.273s-9.974-1.673-14.199-1.891c-6.857-0.291-8.104-0.145-12.468 1.455zM67.047 2.618c1.385 0.436 1.524 0.8 1.108 2.764-0.208 1.236-0.692 2.545-0.97 2.909-0.762 0.8-5.957 1.673-14.199 2.327l-6.58 0.509v-2.255c0-2.618 1.662-4.073 6.372-5.6 3.117-1.018 11.498-1.382 14.268-0.655zM76.121 4.436c1.178 0.436 2.147 1.091 2.147 1.455 0 1.018-2.563 2.109-5.126 2.109-2.286 0-2.494-0.145-2.494-2.182 0-1.818 0.277-2.182 1.662-2.182 0.831 0 2.563 0.364 3.809 0.8z"></path>
<path d="M16.208 16.436c-4.502 2.327-5.403 8.655-1.732 12.073 4.779 4.436 11.844 1.309 11.844-5.236 0-3.927-0.97-5.745-3.81-6.982-2.978-1.236-3.602-1.236-6.303 0.145z"></path>
<path d="M79.862 16.436c-1.177 0.655-2.701 2.255-3.255 3.564-3.394 7.491 5.818 14.255 11.428 8.436 3.532-3.709 2.286-10.691-2.216-12.364-2.84-1.018-3.325-1.018-5.957 0.364z"></path>
</symbol>
<symbol id="icon-exclusive" viewBox="0 0 102 32">
<path d="M45.818 2.655c-1.139 0.272-5.225 2.247-9.043 4.289l-6.967 3.745-8.708 0.409c-11.655 0.613-18.488 2.519-18.354 5.106 0.067 1.089 0.134 1.089 0.402-0.068 0.335-1.362 1.541-1.566 1.541-0.204 0 0.545 0.201 1.498 0.469 2.179 0.335 0.885 0.201 1.089-0.536 0.817-0.536-0.204-1.541 0-2.211 0.545-1.206 0.817-1.139 1.021 0.536 3.949 2.077 3.608 2.077 3.608 0.603 4.017-0.67 0.204 0.335 0.34 2.144 0.408l3.349 0.068-0.201-3.404c-0.335-4.153 1.474-7.489 4.823-9.123 2.813-1.362 4.488-1.362 7.368-0.136 3.014 1.294 4.89 3.949 5.761 8.306l0.737 3.677h8.574c4.689 0 14.067-0.204 20.699-0.477l12.191-0.409v-2.791c0-3.541 2.412-7.285 5.56-8.851 3.081-1.43 4.823-1.362 8.239 0.34 3.014 1.43 5.627 5.515 5.627 8.715 0 1.294 0.268 1.498 1.541 1.158 0.804-0.204 3.014-0.681 4.89-1.089 3.684-0.817 3.282-0.204 5.359-7.625 0.268-0.885-0.201-1.294-1.876-1.77-2.612-0.681-3.416-3.132-1.474-4.494 1.005-0.749 0.134-0.953-5.493-1.226-6.096-0.34-7.1-0.613-12.66-3.336l-6.029-2.996-12.392-0.136c-6.832-0.068-13.33 0.136-14.469 0.409zM66.182 4.562c1.541 1.021 2.813 2.179 2.813 2.655 0 0.409-1.742 1.157-3.818 1.634-4.957 1.157-4.689 1.157-16.746 1.702l-10.249 0.545v-1.634c0-2.179 0.603-2.928 3.349-4.357 2.947-1.498 7.368-2.179 15.407-2.315 5.962-0.068 6.632 0.068 9.244 1.77z"></path>
<path d="M15.004 16.953c-2.277 1.021-4.287 4.085-4.287 6.672 0 3.064 0.938 4.698 3.349 5.991 3.952 2.043 7.971 0.885 9.78-2.928 0.938-1.974 0.938-2.791 0.335-4.97-1.139-3.949-5.694-6.264-9.177-4.766z"></path>
<path d="M75.962 17.021c-2.278 0.885-4.287 4.017-4.287 6.604 0 3.064 0.938 4.698 3.349 5.992 3.885 2.042 7.971 0.885 9.713-2.724 1.273-2.791 1.273-3.949 0-6.468-1.675-3.268-5.493-4.766-8.775-3.404z"></path>
</symbol>
<symbol id="icon-family" viewBox="0 0 106 32">
<path d="M51.442 1.959c-2.374 0.261-5.012 0.653-5.936 0.914-2.11 0.653-10.42 4.767-12.597 6.335-1.253 0.849-3.891 1.371-9.893 1.894-4.485 0.392-10.42 1.241-13.124 1.959s-4.155 1.176-3.1 1.045c0.989-0.131 1.979 0.065 2.176 0.392 0.725 1.11-1.847 3.069-4.287 3.265-2.374 0.196-2.374 0.261-2.704 3.592-0.198 1.828-0.264 3.657-0.132 4.049s1.385 0.718 2.836 0.718c2.506 0 2.572-0.065 2.572-2.351 0-5.224 4.748-9.273 9.959-8.555 2.242 0.261 3.43 0.914 5.342 3.004 2.11 2.22 2.506 3.069 2.506 5.616v2.939h48.804v-2.678c0-8.033 9.299-11.886 15.037-6.269 1.847 1.829 2.374 2.939 2.572 5.486l0.33 3.2 4.419-0.522c7.453-0.849 7.914-1.175 7.98-5.616 0-2.024-1.978-5.355-3.232-5.355-1.055 0-4.683-3.135-4.683-4.114 0-0.327 1.319-0.457 2.968-0.327s2.968 0 2.968-0.261c0-0.784-5.87-4.898-9.101-6.4-1.583-0.784-5.342-1.567-8.903-1.959-6.727-0.718-26.117-0.718-32.778 0zM87.056 3.265c1.253 0.327 3.364 1.502 4.617 2.612l2.308 1.959-1.583 1.306c-1.253 1.045-2.506 1.306-6.661 1.306-4.617 0-5.144-0.131-5.804-1.502l-0.725-1.437v1.437c-0.066 1.371-0.264 1.437-10.75 1.633-5.936 0.131-11.014 0-11.278-0.196-0.33-0.261-0.396-2.090-0.132-4.049 0.396-3.004 0.725-3.722 1.913-3.984 2.308-0.522 25.589 0.261 28.095 0.914zM55.069 5.029c-1.055 5.747-0.989 5.747-10.090 5.943l-8.112 0.196 0.198-1.829c0.132-1.371 0.923-2.22 2.902-3.265 3.364-1.829 8.969-3.331 12.729-3.396l2.836-0.065-0.462 2.416z"></path>
<path d="M12.728 18.417c-1.979 0.98-3.693 4.702-3.166 6.988 1.055 4.898 7.716 6.727 11.344 3.2 5.276-5.29-1.319-13.453-8.178-10.188z"></path>
<path d="M78.548 19.004c-3.034 2.808-3.298 6.661-0.594 9.535 4.089 4.376 11.344 1.241 11.344-4.898 0-4.898-7.123-7.967-10.75-4.637z"></path>
</symbol>
</defs>
</svg>
